<svg width="128" height="128" viewBox="0 0 128 128" fill="none" xmlns="http://www.w3.org/2000/svg">
<path d="M121 41C121 35.5 116.5 31 111 31H20C14.5 31 10 35.5 10 41V90C10 95.5 14.5 100 20 100H111C116.5 100 121 95.5 121 90V41ZM117 90C117 93.3 114.3 96 111 96H20C16.7 96 14 93.3 14 90V41C14 37.7 16.7 35 20 35H111C114.3 35 117 37.7 117 41V90Z" fill="#2DD36F"/>
<path d="M31.3 38.7C31.3 38.1 31.2 37 31.2 37H29.2C29.3 37 29.4 38 29.4 38.7C29.4 45.2 24.3 50.4 17.8 50.4C17.2 50.4 16.1 50.3 16.1 50.2V52.2C16.1 52.3 17.1 52.4 17.8 52.4C25.3 52.3 31.3 46.3 31.3 38.7ZM17.7 77.8C17.1 77.8 16 77.9 16 77.9V79.9C16 79.8 17 79.7 17.7 79.7C24.2 79.7 29.4 85.2 29.4 91.7C29.4 92.4 29.2 92.9 29.1 93.9H31.1C31.2 92.9 31.3 92.3 31.3 91.7C31.3 84.2 25.3 77.8 17.7 77.8ZM111.3 50.2C104.8 50.2 99.6 45.1 99.6 38.6C99.6 38 99.7 36.9 99.8 36.9H97.8C97.7 36.9 97.7 37.9 97.7 38.6C97.7 46.2 103.7 52.3 111.3 52.3C112.3 52.3 113 52.1 114 51.9V49.8C113 50.1 112.3 50.2 111.3 50.2ZM111.3 79.8C112.3 79.8 113 79.9 114 80.2V78C113 77.8 112.3 77.7 111.3 77.7C103.7 77.7 97.6 84.1 97.6 91.7C97.6 92.4 97.7 92.9 97.8 93.9H99.8C99.7 92.9 99.5 92.3 99.5 91.7C99.7 85.3 104.9 79.8 111.3 79.8Z" fill="#2DD36F"/>
<path d="M65 41.2C51.8 41.2 41.2 51.9 41.2 65C41.2 78.2 51.9 88.8 65 88.8C78.1 88.8 88.8 78.1 88.8 65C88.8 51.9 78.2 41.2 65 41.2ZM65 86.9C53 86.9 43.2 77.1 43.2 65.1C43.2 53.1 53 43.2 65 43.2C77 43.2 86.8 53 86.8 65.1C86.8 77.2 77 86.9 65 86.9Z" fill="#2DD36F"/>
<path d="M63 74.7C62 74.6 60.1 74.1 58.9 73.3L60.2 70.2C61.5 71.1 62.9 71.6 64.2 71.6C66.2 71.6 67.2 70.9 67.2 69.5C67.2 68.8 66.9 68.2 66.4 67.6C65.9 67 64.9 66.3 63.5 65.6C62.1 64.9 61.1 64.3 60.6 63.8C60.1 63.3 59.7 62.8 59.4 62.1C59.1 61.4 59 60.8 59 60C59 58.8 59.3 57.8 60.1 56.9C60.9 56 62.1 55.4 63.1 55.1V53H66.2V55.1C67.8 55.3 69 55.6 69.8 56.2L68.8 59.1C67.6 58.2 66.3 57.8 65 57.8C64.2 57.8 63.6 58 63.2 58.4C62.8 58.8 62.6 59.4 62.6 60C62.6 61.1 63.8 62.2 66.3 63.4C67.6 64 68.5 64.6 69.1 65.1C69.7 65.6 70.1 66.2 70.4 66.9C70.7 67.6 70.8 68.4 70.8 69.3C70.8 70.5 70.4 71.6 69.6 72.5C68.8 73.4 67.3 74 66.3 74.4V77H63.3V74.7H63Z" fill="#2DD36F"/>
</svg>
